<?xml version="1.0" encoding="utf-8" ?>
<svg baseProfile="full" height="300" version="1.1" viewBox="0,0,520,300" width="520" xmlns="http://www.w3.org/2000/svg" xmlns:ev="http://www.w3.org/2001/xml-events" xmlns:xlink="http://www.w3.org/1999/xlink"><defs><linearGradient gradientUnits="userSpaceOnUse" id="brandGradient" x1="0" x2="520" y1="0" y2="300"><stop offset="0" stop-color="#12c2e9" /><stop offset="1" stop-color="#1aa7ff" /></linearGradient></defs><circle cx="290" cy="150" fill="url(#brandGradient)" r="14" stroke="none" stroke-width="1.0" /><g><path d="M 329 150 A 39 39 0 0 1 251 150 A 39 39 0 0 1 329 150 L 315 150 A 25 25 0 0 0 265 150 A 25 25 0 0 0 315 150 Z" fill="url(#brandGradient)" stroke="none" stroke-width="0.0" /></g><path d="M 268.111 210.14 A 64 64 0 1 0 268.111 89.86 L 272.899 103.015 A 50 50 0 1 1 272.899 196.985 Z" fill="url(#brandGradient)" stroke="none" stroke-width="0.0" /><path d="M 240.672 220.447 A 86 86 0 1 0 240.672 79.553 L 248.702 91.021 A 72 72 0 1 1 248.702 208.979 Z" fill="url(#brandGradient)" stroke="none" stroke-width="0.0" /><line stroke="url(#brandGradient)" stroke-linecap="round" stroke-width="10" x1="360.4470758088533" x2="393.21315758041294" y1="199.32757352618995" y2="222.2706309802318" /><path d="M 412.095 216.069 Q 415.371 218.364 413.077 221.64 L 399.415 241.152 Q 397.12 244.429 393.844 242.134 L 374.332 228.472 Q 371.055 226.178 373.349 222.901 L 387.012 203.389 Q 389.306 200.112 392.583 202.407 Z" fill="url(#brandGradient)" stroke="none" stroke-width="0.0" /><line stroke="url(#brandGradient)" stroke-linecap="round" stroke-width="10" x1="376.0" x2="416.0" y1="150.0" y2="150.0" /><path d="M 400.09 138.09 Q 400.09 134.09 404.09 134.09 L 427.91 134.09 Q 431.91 134.09 431.91 138.09 L 431.91 161.91 Q 431.91 165.91 427.91 165.91 L 404.09 165.91 Q 400.09 165.91 400.09 161.91 Z" fill="url(#brandGradient)" stroke="none" stroke-width="0.0" /><line stroke="url(#brandGradient)" stroke-linecap="round" stroke-width="10" x1="360.4470758088533" x2="393.21315758041294" y1="100.67242647381005" y2="77.7293690197682" /><path d="M 393.844 57.866 Q 397.12 55.571 399.415 58.848 L 413.077 78.36 Q 415.371 81.636 412.095 83.931 L 392.583 97.593 Q 389.306 99.888 387.012 96.611 L 373.349 77.099 Q 371.055 73.822 374.332 71.528 Z" fill="url(#brandGradient)" stroke="none" stroke-width="0.0" /><g><path d="M 155 150 Q 163.75 175 172.5 150 Q 181.25 125 190 150 Q 198.75 175 207.5 150 Q 216.25 125 225 150 L 235 150" fill="none" stroke="url(#brandGradient)" stroke-width="8" /><path d="M 236 153 Q 236 156 238.757 154.818 L 247.243 151.182 Q 250 150 247.243 148.818 L 238.757 145.182 Q 236 144 236 147 Z" fill="url(#brandGradient)" stroke="url(#brandGradient)" stroke-width="8" /></g></svg>